<?xml version="1.0" encoding="UTF-8" standalone="no"?>
<!DOCTYPE svg PUBLIC "-//W3C//DTD SVG 1.1//EN" "http://www.w3.org/Graphics/SVG/1.1/DTD/svg11.dtd">
<svg width="100%" height="100%" viewBox="0 0 256 256" version="1.1" xmlns="http://www.w3.org/2000/svg" xmlns:xlink="http://www.w3.org/1999/xlink" xml:space="preserve" xmlns:serif="http://www.serif.com/" style="fill-rule:evenodd;clip-rule:evenodd;stroke-linecap:round;stroke-linejoin:round;stroke-miterlimit:1.5;">
    <g transform="matrix(0.5,0,0,0.5,0,0)">
        <g transform="matrix(1.01019,0,0,1.00707,-5.21755,-3.61837)">
            <rect x="5.165" y="3.593" width="506.835" height="508.407" style="fill:rgb(235,235,235);stroke:rgb(242,94,13);stroke-width:101.13px;"/>
        </g>
        <g transform="matrix(1,0,0,1,-17.9521,31.6496)">
            <g transform="matrix(320.186,0,0,320.186,56.0655,331.453)">
                <path d="M0.425,-0.669L0.425,-0.447L0.261,-0.669L0.049,-0.669L0.049,-0L0.261,-0L0.261,-0.317L0.425,-0.106L0.425,-0L0.637,-0L0.637,-0.669L0.425,-0.669Z" style="fill-rule:nonzero;"/>
            </g>
            <g transform="matrix(320.186,0,0,320.186,275.073,331.453)">
                <path d="M0.628,-0.489L0.628,-0.669L0.04,-0.669L0.041,-0L0.628,-0L0.628,-0.31L0.522,-0.416L0.416,-0.416L0.416,-0.179L0.252,-0.179L0.252,-0.489L0.628,-0.489Z" style="fill-rule:nonzero;"/>
            </g>
        </g>
    </g>
</svg>
